<?xml version="1.0" encoding="utf-8"?>
<!-- Generator: Adobe Illustrator 27.0.0, SVG Export Plug-In . SVG Version: 6.00 Build 0)  -->
<svg version="1.1" xmlns="http://www.w3.org/2000/svg" xmlns:xlink="http://www.w3.org/1999/xlink" x="0px" y="0px"
	 viewBox="0 0 720.55 693.44" style="enable-background:new 0 0 720.55 693.44;" xml:space="preserve">
<style type="text/css">
	.st0{display:none;}
	.st1{display:inline;}
	.st2{fill:#FFFFFF;}
</style>
<g id="Calque_1">
	<g>
		<path d="M620.77,457.15h-8.95h-98.62h-8.95v8.95v17.92l-2.99-3.59c-13.54-16.24-34.26-25.55-56.85-25.55
			c-22.94,0-43.29,10.52-57.23,26.77l-23.24-24.5H355h-29.72h-8.95v8.95v19.69l-27.47-28.64h-5.23h-27.26h-8.95v8.95v3.95
			l-12.23-12.89h-8.95h-29.72h-5.77h-3.18h-8.9h-31.23h-6.89l-1.76,6.67l-4.73,17.92l-23.47-24.59h-6.88H72.87H60.79l3.52,11.56
			l39.76,130.42l1.93,6.34l40.5,38.65h37.99l9.83-32.26l34.03,32.26h45.51v-13.59l14.34,13.59h45.51v-29.04l30.3,29.04h38.59v-47.18
			l28.75,27.55c0.06,0.06,0.13,0.12,0.19,0.18l2.5,2.39h0.47c13.51,11.94,31.32,19.32,51.33,19.32c22.97,0,46.73-9.94,59.85-34.3
			l33.8,32.04h45.5V539.63h34.45v-41.72L620.77,457.15z M138.94,596.52h-26.31L72.87,466.1h30.86l21.96,82.53l21.77-82.53h31.23
			L138.94,596.52z M226.26,596.52h-29.72V466.1h29.72V596.52z M355,596.52h-26.12l-42.78-74.95v74.95h-29.72V466.1h27.26
			l41.65,74.01V466.1H355V596.52z M446.12,598.78c-40.13,0-68.71-30.66-68.71-67.38c0-37.1,29.34-67.57,67.01-67.57
			c20.63,0,38.62,8.71,49.98,22.33l-21.96,18.36c-7-8.14-16.85-13.05-28.01-13.05c-21.01,0-37.1,18.17-37.1,39.93
			c0,21.39,15.71,40.89,38.05,40.89c14.57,0,30.66-8.14,30.66-21.01h-36.72v-24.04h69.09C508.4,576.64,480.96,598.78,446.12,598.78z
			 M611.83,492.03h-34.45v104.48h-29.72V492.03h-34.46V466.1h98.62V492.03z"/>
	</g>
</g>
<g id="Calque_2">
	<g>
		<path d="M620.77,48.49h-8.95h-98.62h-8.95v8.95v17.92l-2.99-3.59c-13.54-16.24-34.26-25.55-56.85-25.55
			c-22.94,0-43.29,10.52-57.23,26.77l-23.24-24.5H355h-29.72h-8.95v8.95v19.69l-27.47-28.64h-5.23h-27.26h-8.95v8.95v3.95
			l-12.23-12.89h-8.95h-29.72h-5.77h-3.18h-8.9h-31.23h-6.89l-1.76,6.67l-4.73,17.92l-23.47-24.59h-6.88H72.87H60.79l3.52,11.56
			l39.76,130.42l1.93,6.34l40.5,38.65h37.99l9.83-32.26l34.03,32.26h45.51v-13.59l14.34,13.59h45.51v-29.04l30.3,29.04h38.59v-47.18
			l28.75,27.55c0.06,0.06,0.13,0.12,0.19,0.18l2.5,2.39h0.47c13.51,11.94,31.32,19.32,51.33,19.32c22.97,0,46.73-9.94,59.85-34.3
			l33.8,32.04h45.5V130.97h34.45V89.25L620.77,48.49z M138.94,187.86h-26.31L72.87,57.44h30.86l21.96,82.53l21.77-82.53h31.23
			L138.94,187.86z M226.26,187.86h-29.72V57.44h29.72V187.86z M355,187.86h-26.12l-42.78-74.95v74.95h-29.72V57.44h27.26
			l41.65,74.01V57.44H355V187.86z M446.12,190.12c-40.13,0-68.71-30.66-68.71-67.38c0-37.1,29.34-67.57,67.01-67.57
			c20.63,0,38.62,8.71,49.98,22.33l-21.96,18.36c-7-8.14-16.85-13.05-28.01-13.05c-21.01,0-37.1,18.17-37.1,39.93
			c0,21.39,15.71,40.89,38.05,40.89c14.57,0,30.66-8.14,30.66-21.01h-36.72v-24.04h69.09C508.4,167.98,480.96,190.12,446.12,190.12z
			 M611.83,83.38h-34.45v104.48h-29.72V83.38h-34.46V57.44h98.62V83.38z"/>
	</g>
</g>
<g id="Calque_3">
	<rect x="340.04" y="261.64" transform="matrix(0.7071 -0.7071 0.7071 0.7071 -140.892 352.4785)" width="29.93" height="169.32"/>
</g>
<g id="Calque_4">
	<rect x="270.35" y="331.34" transform="matrix(0.7071 -0.7071 0.7071 0.7071 -140.8923 352.4572)" width="169.32" height="29.93"/>
</g>
<g id="Vingt_2" class="st0">
	<g id="Blanc_1_" class="st1">
		<path class="st2" d="M147.46,466.1h31.23l-39.75,130.42h-26.31L72.88,466.1h30.86l21.96,82.53L147.46,466.1z"/>
		<path class="st2" d="M196.54,596.52V466.1h29.72v130.42H196.54z"/>
		<path class="st2" d="M325.29,466.1H355v130.42h-26.12l-42.78-74.95v74.95h-29.72V466.1h27.26l41.65,74.01V466.1z"/>
		<path class="st2" d="M377.41,531.4c0-37.1,29.34-67.57,67.01-67.57c20.63,0,38.62,8.71,49.98,22.33l-21.96,18.36
			c-7-8.14-16.85-13.05-28.01-13.05c-21.01,0-37.1,18.17-37.1,39.93c0,21.39,15.71,40.89,38.05,40.89
			c14.57,0,30.66-8.14,30.66-21.01h-36.72v-24.04h69.09c0,49.4-27.44,71.55-62.27,71.55C406,598.78,377.41,568.13,377.41,531.4z"/>
		<path class="st2" d="M611.83,466.1v25.94h-34.45v104.48h-29.72V492.03h-34.46V466.1H611.83z"/>
	</g>
</g>
<g id="Vingt_1" class="st0">
	<g id="Blanc" class="st1">
		<path class="st2" d="M147.46,57.44h31.23l-39.75,130.42h-26.31L72.88,57.44h30.86l21.96,82.53L147.46,57.44z"/>
		<path class="st2" d="M196.54,187.86V57.44h29.72v130.42H196.54z"/>
		<path class="st2" d="M325.29,57.44H355v130.42h-26.12l-42.78-74.95v74.95h-29.72V57.44h27.26l41.65,74.01V57.44z"/>
		<path class="st2" d="M377.41,122.74c0-37.1,29.34-67.57,67.01-67.57c20.63,0,38.62,8.71,49.98,22.33l-21.96,18.36
			c-7-8.14-16.85-13.05-28.01-13.05c-21.01,0-37.1,18.17-37.1,39.93c0,21.39,15.71,40.89,38.05,40.89
			c14.57,0,30.66-8.14,30.66-21.01h-36.72v-24.04h69.09c0,49.4-27.44,71.55-62.27,71.55C406,190.12,377.41,159.47,377.41,122.74z"/>
		<path class="st2" d="M611.83,57.44v25.94h-34.45v104.48h-29.72V83.38h-34.46V57.44H611.83z"/>
	</g>
</g>
</svg>
